<svg width="261" height="179" viewBox="0 0 261 179" fill="none" xmlns="http://www.w3.org/2000/svg">
<path fill-rule="evenodd" clip-rule="evenodd" d="M43.4 0V7.2H47V10.8H50.6V18H54.2V25.2H57.8L57.799 28.799L61.4 28.8V36H65V39.6H68.6V46.8H72.2V49.4232H75.8V45.8232H79.4V38.6232H86.6V35.0232H90.2V38.6232V42.2232L86.6 42.223V45.8232H83V49.4232H79.4V56.6232L75.8 56.623V61.2H62.599V164.4H108.919L108.92 150H113.719L113.72 128.4L118.519 128.399L118.52 118.8H123.32V109.2H137.72V118.8H142.52V128.399L147.32 128.4V150H152.12V164.4H195.8V61.2H185V56.623L181.4 56.6232V49.4232H177.8V45.8232H174.2V42.223L170.6 42.2232V35.0232H174.2V38.6232H181.4V45.8232H185V49.4232H188.6L188.599 50.4H188.6V46.8H192.2V39.6H195.8V36H199.4V28.8L203 28.799V25.2H206.6V18H210.2V10.8H213.8V7.2H217.4V0H224.6V10.8H217.4V18H213.8V21.6H221V25.2H210.2V28.8H206.599L206.6 36H203V39.6H199.4V43.2H206.6V46.8H195.8V50.4H192.2V54H249.8V50.4H246.2V46.8H242.6V39.6H239V36H235.4V28.8H231.8V25.2H228.2V18H224.6V7.2H228.2V10.8H231.8V18H235.4V25.2H239L238.999 28.799L242.6 28.8V36H246.2V39.6H249.8V46.8H253.4V50.4H257V54H260.6V61.2H243.8V169.2H156.92V178.8H104.12V169.2H14.6V61.2H0.199997V54H3.799L3.8 50.4H7.4V46.8H11V39.6H14.6V36H18.2V28.8L21.8 28.799V25.2H25.4V18H29V10.8H32.6V7.2H36.2V0H43.4ZM152.12 169.2H108.92V174H152.12V169.2ZM57.8 150H19.4V164.4H57.799L57.8 150ZM239 150H200.6V164.4H239V150ZM147.32 159.6H113.72V164.4H147.32V159.6ZM142.52 150H118.52V154.8H142.52V150ZM86.6 128.4V133.2H91.4V147.6H81.8V133.2H77V128.4H86.6ZM171.8 128.4V133.2H176.6V128.4H181.4V133.2H176.6V147.6H167V133.2H162.2V128.4H171.8ZM24.2 61.2H19.4V146.4H57.8L57.799 75.6H48.2V70.8H33.8V66H24.2V61.2ZM205.4 61.2H200.6V146.4H239V70.8V75.6H229.4V70.8H215V66H205.4V61.2ZM96.2 128.4V133.2H91.399L91.4 128.4H96.2ZM215 117.6V122.4H219.8V127.2H224.6V132H210.2V117.6H215ZM33.8 117.6V122.4H38.6V127.2H43.4V132H29V117.6H33.8ZM33.8 98.4V103.2H38.6V108H43.4V112.8H29V98.4H33.8ZM215 98.4V103.2H219.8V108H224.6V112.8H210.2V98.4H215ZM215 79.2V84H219.8V88.8H224.6V93.6H210.2V79.2H215ZM33.8 79.2V84H38.6V88.8H43.4V93.6H29V79.2H33.8ZM43.4 10.8H36.2V18H32.6V25.2H29V28.8H25.4V32.4H32.6V36H21.8V39.6H18.2V43.2H25.4V46.8H14.6V50.4H11L10.999 54H68.599L68.6 50.4H65V46.8H61.4V39.6H57.8V36H54.2V28.8H50.6V25.2H47V18H43.4V10.8ZM138.2 17.0232V20.6232H140.6V24.2232V20.6232H147.8V24.2232H155V27.8232H163.4V31.4232H170.6V38.6232H163.4V35.0232H155V31.4232H147.8V27.8232H137V24.2232L123.8 24.223V27.8232H113V31.4232H105.8V35.0232H97.4V38.6232H90.2V31.4232H97.4V27.8232H105.8V24.2232H113V20.6232H123.8V17.0232H138.2ZM213.8 32.4V36H206.6V32.4H213.8ZM39.8 21.6V25.2H32.6V21.6H39.8Z" fill="white"/>
<path fill-rule="evenodd" clip-rule="evenodd" d="M159.8 77.04V113.04H152.6V77.04H159.8ZM96.2 60.24V65.04H101V60.24H105.8V65.04H101.237V77.04H98.6V80.64H102.2V77.04H109.4V113.04H102.2V110.64H97.4V110.639L89 110.64V107.039L85.4 107.04L85.399 103.44H81.8V87.84H85.4V84.24H89V80.64H93.8V77.04H90.2V69.84H93.8V65.04H91.4V60.24H96.2ZM161 60.24V65.04H165.8V60.24H170.6V65.04H168.2L168.199 69.84H171.8V77.04H168.2V80.64H173L172.999 84.24H176.6V87.84H180.2V103.44H176.6V107.04L172.999 107.039L173 110.64L164.6 110.639V110.64H159.8V80.64H163.4V77.04H160.763V65.04H156.2V60.24H161ZM97.4 85.439H90.2V91.44H86.6V99.839H93.8V95.04H97.4V85.439ZM171.8 85.439H164.6V95.04H168.2V99.839H175.4V91.44H171.8V85.439ZM101 55.44V60.24H96.2V55.44H101ZM165.8 55.44V60.24H161V55.44H165.8ZM156.2 55.44V60.24H151.4V55.44H156.2ZM110.6 60.24H105.8V55.44H110.6V50.64H115.4V53.04H146.6V50.64H151.4V55.44H146.6V57.84H115.4V55.44H110.6V60.24ZM161 50.64V55.44H156.2V50.64H161ZM105.8 50.64V55.44H101V50.64H105.8ZM110.6 50.64H105.8V45.84H110.6V42.24H151.4V45.84H156.2V50.64H151.4V47.04H110.6V50.64Z" fill="white"/>
</svg>
